<?xml version="1.0" encoding="UTF-8"?>
<svg width="16px" height="16px" viewBox="0 0 16 16" version="1.1" xmlns="http://www.w3.org/2000/svg" xmlns:xlink="http://www.w3.org/1999/xlink">
    <title>Group 4</title>
    <g id="EDevi-website" stroke="none" stroke-width="1" fill="none" fill-rule="evenodd">
        <g id="06_Donate" transform="translate(-63.000000, -491.000000)">
            <g id="Group-14" transform="translate(24.000000, 491.000000)">
                <g id="Group-4" transform="translate(39.000000, 0.000000)">
                    <circle id="Oval" fill="#1BB934" cx="8" cy="8" r="8"></circle>
                    <g id="arrow" transform="translate(8.000000, 8.333333) scale(1, -1) rotate(90.000000) translate(-8.000000, -8.333333) translate(4.000000, 5.333333)" fill="#FFFFFF" fill-rule="nonzero" stroke="#FFFFFF" stroke-width="0.5">
                        <path d="M7.95116605,2.97378776 L5.45116788,0.377633276 C5.38605856,0.310019677 5.28058988,0.310019677 5.21549618,0.377633276 C5.15038685,0.445246874 5.15038685,0.554772141 5.21549618,0.622369513 L7.43099456,2.92308161 L0.166671753,2.92308161 C0.0745468204,2.92308161 0,3.00049569 0,3.09616399 C0,3.19183228 0.0745468204,3.26924636 0.166671753,3.26924636 L7.43099456,3.26924636 L5.21549618,5.56994224 C5.15038685,5.63755583 5.15038685,5.7470811 5.21549618,5.81467847 C5.24804303,5.84847716 5.29069925,5.86538462 5.33333984,5.86538462 C5.37598044,5.86538462 5.41862103,5.84847716 5.45118351,5.81467847 L7.95118168,3.21852399 C8.01627538,3.15092662 8.01627538,3.04140135 7.95116605,2.97378776 Z" id="Path"></path>
                    </g>
                </g>
            </g>
        </g>
    </g>
</svg>