<svg xmlns="http://www.w3.org/2000/svg" xmlns:xlink="http://www.w3.org/1999/xlink" width="146.989" height="143.537" viewBox="0 0 146.989 143.537"><defs><style>.a{fill:url(#a);}.b,.e,.g,.k,.l{fill:none;}.b,.c,.d,.e,.f,.g,.k,.l{stroke:#caf0ff;}.b,.g{stroke-miterlimit:10;}.b,.k{stroke-width:0.935px;}.c{fill:#0147fc;}.c,.d,.e,.f,.k,.l{stroke-linecap:round;stroke-linejoin:round;}.c,.d,.e,.f{stroke-width:0.865px;}.d{fill:#0de2fb;}.f,.i{fill:#0000f4;}.g{stroke-width:0.588px;}.h{fill:#caf0ff;}.j{fill:#00feff;}.l{stroke-width:1.154px;stroke-dasharray:2.307;}</style><linearGradient id="a" x1="0.469" y1="1.122" x2="0.508" y2="-0.125" gradientUnits="objectBoundingBox"><stop offset="0" stop-color="#fc0000"/><stop offset="0.151" stop-color="#c30131" stop-opacity="0.769"/><stop offset="0.32" stop-color="#8a0363" stop-opacity="0.537"/><stop offset="0.483" stop-color="#5b048c" stop-opacity="0.345"/><stop offset="0.637" stop-color="#3605ac" stop-opacity="0.196"/><stop offset="0.779" stop-color="#1c06c3" stop-opacity="0.086"/><stop offset="0.904" stop-color="#0c06d1" stop-opacity="0.024"/><stop offset="1" stop-color="#0707d6" stop-opacity="0"/></linearGradient></defs><g transform="translate(198.579 -1754.729)"><path class="a" d="M-63.017,1772.489l-129.251-17.153a5.082,5.082,0,0,0-5.594,6.3l18.327,71.852a15.122,15.122,0,0,0,14.652,11.385H-89.05A16.273,16.273,0,0,0-73.2,1832.3l13.016-55.712A3.359,3.359,0,0,0-63.017,1772.489Z" transform="translate(0 0)"/><g transform="translate(-162 1842.567)"><rect class="b" width="3.25" height="3.25" transform="matrix(0.708, -0.707, 0.707, 0.708, 14.242, 2.298)"/><rect class="b" width="3.25" height="3.25" transform="matrix(0.708, -0.707, 0.707, 0.708, 21.363, 2.299)"/><rect class="b" width="3.25" height="3.25" transform="matrix(0.708, -0.707, 0.707, 0.708, 0, 2.296)"/><rect class="b" width="3.25" height="3.25" transform="matrix(0.708, -0.707, 0.707, 0.708, 7.121, 2.301)"/></g><g transform="translate(-78.864 1779.295)"><path class="c" d="M-97.381,1818.892l-5.49-1.421,3.975-4.044,3.975-4.044,1.514,5.465,1.514,5.465Z" transform="translate(102.87 -1765.648)"/><path class="d" d="M-95.418,1809l-3.808-.986,2.758-2.805,2.758-2.806,1.051,3.791,1.051,3.791Z" transform="translate(103.79 -1767.409)"/><g transform="translate(9.064 0)"><rect class="e" width="3.25" height="3.25" transform="matrix(0.517, 0.856, -0.856, 0.517, 4.489, 20.595)"/><rect class="e" width="3.25" height="3.25" transform="matrix(0.517, 0.856, -0.856, 0.517, 2.782, 27.509)"/><rect class="e" width="3.25" height="3.25" transform="matrix(0.517, 0.856, -0.856, 0.517, 7.9, 6.767)"/><rect class="e" width="3.25" height="3.25" transform="matrix(0.517, 0.856, -0.856, 0.517, 9.576, 0)"/><rect class="e" width="3.25" height="3.25" transform="matrix(0.517, 0.856, -0.856, 0.517, 6.19, 13.68)"/></g></g><g transform="translate(-64.58 1766.316)"><g transform="translate(2.907 2.561)"><path class="f" d="M-82.165,1770.671a9.56,9.56,0,0,1-2.034,1.657,10.021,10.021,0,0,1-1.984.973A9.805,9.805,0,0,1-88,1771.111a10.27,10.27,0,0,1-1.146-2.5,10.988,10.988,0,0,1,1.778-1.374,9.708,9.708,0,0,1,2.4-1.1,9.766,9.766,0,0,1,1.671,2.045A10.461,10.461,0,0,1-82.165,1770.671Z" transform="translate(89.143 -1766.14)"/></g><path class="e" d="M-84.872,1766.655a10.506,10.506,0,0,1,5.474-.259,10.442,10.442,0,0,1-2.672,4.792,10.537,10.537,0,0,1,.282,5.045,10.437,10.437,0,0,1-4.3-2.418,9.974,9.974,0,0,1-1.816-2.184,10.58,10.58,0,0,1-1.142-2.5,10.582,10.582,0,0,1-.3-5.035A10.384,10.384,0,0,1-84.872,1766.655Z" transform="translate(91.955 -1764.095)"/><path class="e" d="M-81.3,1776.233a10.437,10.437,0,0,1-4.3-2.418,10.713,10.713,0,0,1-5.864.4,10.714,10.714,0,0,1,2.907-5.083,10.582,10.582,0,0,1-.3-5.035,10.384,10.384,0,0,1,4.474,2.56,9.815,9.815,0,0,1,1.668,2.048,10.572,10.572,0,0,1,1.133,2.486A10.537,10.537,0,0,1-81.3,1776.233Z" transform="translate(91.464 -1764.095)"/><path class="e" d="M-83.613,1772.847a10.062,10.062,0,0,1-1.986.968,10.713,10.713,0,0,1-5.864.4,10.714,10.714,0,0,1,2.907-5.083,10.582,10.582,0,0,1-.3-5.035,10.384,10.384,0,0,1,4.474,2.56,10.506,10.506,0,0,1,5.474-.259,10.442,10.442,0,0,1-2.672,4.792A9.733,9.733,0,0,1-83.613,1772.847Z" transform="translate(91.464 -1764.095)"/><path class="e" d="M-81.58,1770.774a10.537,10.537,0,0,1,.282,5.045,10.437,10.437,0,0,1-4.3-2.418,10.712,10.712,0,0,1-5.864.4,10.715,10.715,0,0,1,2.907-5.083,11.584,11.584,0,0,1,1.775-1.374,9.837,9.837,0,0,1,2.4-1.1,10.506,10.506,0,0,1,5.474-.259A10.442,10.442,0,0,1-81.58,1770.774Z" transform="translate(91.464 -1763.681)"/></g><line class="e" x2="32.338" transform="translate(-155.854 1881.875)"/><line class="e" x1="3.606" y2="18.546" transform="translate(-171.545 1844.867)"/><g transform="translate(-120.254 1865.778)"><circle class="g" cx="16.097" cy="16.097" r="16.097"/><circle class="g" cx="13.857" cy="13.857" r="13.857" transform="translate(2.24 2.24)"/><g transform="translate(0.011 0.011)"><line class="g" y1="2.239" x2="0.082" transform="translate(15.497 29.934)"/><line class="g" x1="1.525" y1="1.641" transform="translate(25.519 26.236)"/><line class="g" x1="2.239" y1="0.082" transform="translate(29.933 16.593)"/><line class="g" x1="1.641" y2="1.525" transform="translate(26.236 5.128)"/><line class="g" x1="0.082" y2="2.239" transform="translate(16.593)"/><line class="g" x2="1.525" y2="1.641" transform="translate(5.128 4.295)"/><line class="g" x2="2.239" y2="0.082" transform="translate(0 15.497)"/><line class="g" y1="1.525" x2="1.641" transform="translate(4.295 25.519)"/></g><g transform="translate(0.011 0.011)"><line class="g" y1="2.239" x2="0.082" transform="translate(15.497 29.934)"/><line class="g" x1="1.525" y1="1.641" transform="translate(25.519 26.236)"/><line class="g" x1="2.239" y1="0.082" transform="translate(29.933 16.593)"/><line class="g" x1="1.641" y2="1.525" transform="translate(26.236 5.128)"/><line class="g" x1="0.082" y2="2.239" transform="translate(16.593)"/><line class="g" x2="1.525" y2="1.641" transform="translate(5.128 4.295)"/><line class="g" x2="2.239" y2="0.082" transform="translate(0 15.497)"/><line class="g" y1="1.525" x2="1.641" transform="translate(4.295 25.519)"/></g><g transform="translate(0.357 0.357)"><line class="g" y1="2.19" x2="0.469" transform="translate(12.366 29.288)"/><line class="g" x1="1.217" y1="1.881" transform="translate(23.267 27.373)"/><line class="g" x1="2.19" y1="0.469" transform="translate(29.288 18.643)"/><line class="g" x1="1.881" y2="1.217" transform="translate(27.373 6.995)"/><line class="g" x1="0.469" y2="2.19" transform="translate(18.643)"/><line class="g" x2="1.217" y2="1.881" transform="translate(6.995 2.225)"/><line class="g" x2="2.19" y2="0.469" transform="translate(0 12.366)"/><line class="g" y1="1.217" x2="1.881" transform="translate(2.225 23.267)"/></g><g transform="translate(1.182 1.182)"><line class="g" y1="2.076" x2="0.843" transform="translate(8.859 27.753)"/><line class="g" x1="0.872" y1="2.064" transform="translate(20.307 27.679)"/><line class="g" x1="2.076" y1="0.843" transform="translate(27.753 20.127)"/><line class="g" x1="2.064" y2="0.872" transform="translate(27.679 8.65)"/><line class="g" x1="0.843" y2="2.076" transform="translate(20.127)"/><line class="g" x2="0.872" y2="2.064" transform="translate(8.65 0.087)"/><line class="g" x2="2.076" y2="0.843" transform="translate(0 8.859)"/><line class="g" y1="0.872" x2="2.064" transform="translate(0.087 20.307)"/></g><g transform="translate(0.406 0.406)"><line class="g" y1="1.898" x2="1.19" transform="translate(7.137 27.429)"/><line class="g" x1="0.5" y1="2.184" transform="translate(18.785 29.197)"/><line class="g" x1="1.898" y1="1.19" transform="translate(27.429 23.053)"/><line class="g" x1="2.184" y2="0.5" transform="translate(29.197 12.096)"/><line class="g" x1="1.19" y2="1.898" transform="translate(23.053 2.054)"/><line class="g" x2="0.5" y2="2.184" transform="translate(12.096)"/><line class="g" x2="1.898" y2="1.19" transform="translate(2.054 7.137)"/><line class="g" y1="0.5" x2="2.184" transform="translate(0 18.785)"/></g><g transform="translate(0.021 0.021)"><line class="g" y1="1.662" x2="1.502" transform="translate(5.285 26.358)"/><line class="g" x1="0.113" y1="2.237" transform="translate(16.778 29.915)"/><line class="g" x1="1.662" y1="1.502" transform="translate(26.358 25.366)"/><line class="g" x1="2.237" y2="0.113" transform="translate(29.915 15.261)"/><line class="g" x1="1.502" y2="1.662" transform="translate(25.366 4.132)"/><line class="g" x2="0.113" y2="2.237" transform="translate(15.261)"/><line class="g" x2="1.662" y2="1.502" transform="translate(4.132 5.285)"/><line class="g" y1="0.113" x2="2.237" transform="translate(0 16.778)"/></g><path class="h" d="M-130.014,1859.234a6.3,6.3,0,0,1,1.624-2.326,6.148,6.148,0,0,1-1.667-2.432,6.3,6.3,0,0,0-.447,2.326A6.167,6.167,0,0,0-130.014,1859.234Z" transform="translate(137.288 -1840.755)"/><path class="h" d="M-124.7,1849.137a6.215,6.215,0,0,1,2.337,1.539,6.053,6.053,0,0,1,2.293-1.529,6.3,6.3,0,0,0-2.326-.446A6.132,6.132,0,0,0-124.7,1849.137Z" transform="translate(138.753 -1842.211)"/><path class="h" d="M-120.07,1863.586a6.158,6.158,0,0,1-2.293-1.518,6.309,6.309,0,0,1-2.337,1.529,6.16,6.16,0,0,0,2.3.435A6.3,6.3,0,0,0-120.07,1863.586Z" transform="translate(138.753 -1838.839)"/><path class="h" d="M-115.2,1856.886a6.294,6.294,0,0,0-.447-2.325,6.186,6.186,0,0,1-1.677,2.432,6.223,6.223,0,0,1,1.635,2.325A6.186,6.186,0,0,0-115.2,1856.886Z" transform="translate(140.614 -1840.733)"/><g transform="translate(9.662 9.665)"><path class="i" d="M-120.562,1858.846a6.35,6.35,0,0,0,2.676-1.467,6.3,6.3,0,0,0-2.612-1.432,6.47,6.47,0,0,0-1.667-3.133,6.465,6.465,0,0,0-1.678,3.112,6.406,6.406,0,0,0-2.676,1.454,6.256,6.256,0,0,0,2.74,1.477,6.323,6.323,0,0,0,1.614,2.888A6.3,6.3,0,0,0-120.562,1858.846Z" transform="translate(128.632 -1850.839)"/><path class="j" d="M-121.739,1860.824a6.323,6.323,0,0,1-1.614-2.888,6.257,6.257,0,0,1-2.74-1.477,6.325,6.325,0,0,0-1.624,2.326,6.187,6.187,0,0,0-.488,2.432,6.881,6.881,0,0,0,.138,1.339,6.044,6.044,0,0,0,1.7.233,6.116,6.116,0,0,0,2.293-.436A6.258,6.258,0,0,0-121.739,1860.824Z" transform="translate(128.206 -1849.919)"/><path class="j" d="M-121.739,1853.212a6.2,6.2,0,0,0-2.337-1.539,6.116,6.116,0,0,0-2.293-.436,6.4,6.4,0,0,0-1.635.213,5.91,5.91,0,0,0-.2,1.571,6.3,6.3,0,0,0,.446,2.326,6.156,6.156,0,0,0,1.667,2.43,6.4,6.4,0,0,1,2.676-1.454A6.464,6.464,0,0,1-121.739,1853.212Z" transform="translate(128.206 -1851.237)"/><path class="j" d="M-116.639,1853.021a5.949,5.949,0,0,0-.2-1.583,5.946,5.946,0,0,0-1.583-.2,6.3,6.3,0,0,0-2.326.446,6.058,6.058,0,0,0-2.293,1.529,6.47,6.47,0,0,1,1.667,3.133,6.3,6.3,0,0,1,2.612,1.432,6.168,6.168,0,0,0,1.678-2.43A6.3,6.3,0,0,0-116.639,1853.021Z" transform="translate(129.509 -1851.237)"/><path class="j" d="M-116.639,1861.217a6.187,6.187,0,0,0-.488-2.432,6.223,6.223,0,0,0-1.636-2.326,6.349,6.349,0,0,1-2.676,1.467,6.3,6.3,0,0,1-1.6,2.9,6.152,6.152,0,0,0,2.293,1.519,6.3,6.3,0,0,0,2.326.446,6.433,6.433,0,0,0,1.647-.212A7.1,7.1,0,0,0-116.639,1861.217Z" transform="translate(129.509 -1849.919)"/></g><g transform="translate(4.803 4.803)"><circle class="g" cx="11.297" cy="11.297" r="11.297"/></g></g><g transform="translate(-191.231 1865.778)"><circle class="g" cx="16.097" cy="16.097" r="16.097"/><circle class="g" cx="13.857" cy="13.857" r="13.857" transform="translate(2.24 2.24)"/><g transform="translate(0.011 0.011)"><line class="g" y1="2.239" x2="0.082" transform="translate(15.497 29.934)"/><line class="g" x1="1.525" y1="1.641" transform="translate(25.519 26.236)"/><line class="g" x1="2.239" y1="0.082" transform="translate(29.933 16.593)"/><line class="g" x1="1.641" y2="1.525" transform="translate(26.236 5.128)"/><line class="g" x1="0.082" y2="2.239" transform="translate(16.593)"/><line class="g" x2="1.525" y2="1.641" transform="translate(5.128 4.295)"/><line class="g" x2="2.239" y2="0.082" transform="translate(0 15.497)"/><line class="g" y1="1.525" x2="1.641" transform="translate(4.295 25.519)"/></g><g transform="translate(0.011 0.011)"><line class="g" y1="2.239" x2="0.082" transform="translate(15.497 29.934)"/><line class="g" x1="1.525" y1="1.641" transform="translate(25.519 26.236)"/><line class="g" x1="2.239" y1="0.082" transform="translate(29.933 16.593)"/><line class="g" x1="1.641" y2="1.525" transform="translate(26.236 5.128)"/><line class="g" x1="0.082" y2="2.239" transform="translate(16.593)"/><line class="g" x2="1.525" y2="1.641" transform="translate(5.128 4.295)"/><line class="g" x2="2.239" y2="0.082" transform="translate(0 15.497)"/><line class="g" y1="1.525" x2="1.641" transform="translate(4.295 25.519)"/></g><g transform="translate(0.357 0.357)"><line class="g" y1="2.19" x2="0.469" transform="translate(12.366 29.288)"/><line class="g" x1="1.217" y1="1.881" transform="translate(23.267 27.373)"/><line class="g" x1="2.19" y1="0.469" transform="translate(29.288 18.643)"/><line class="g" x1="1.881" y2="1.217" transform="translate(27.373 6.995)"/><line class="g" x1="0.469" y2="2.19" transform="translate(18.643)"/><line class="g" x2="1.217" y2="1.881" transform="translate(6.995 2.225)"/><line class="g" x2="2.19" y2="0.469" transform="translate(0 12.366)"/><line class="g" y1="1.217" x2="1.881" transform="translate(2.225 23.267)"/></g><g transform="translate(1.182 1.182)"><line class="g" y1="2.076" x2="0.843" transform="translate(8.859 27.753)"/><line class="g" x1="0.872" y1="2.064" transform="translate(20.307 27.679)"/><line class="g" x1="2.076" y1="0.843" transform="translate(27.753 20.127)"/><line class="g" x1="2.064" y2="0.872" transform="translate(27.679 8.65)"/><line class="g" x1="0.843" y2="2.076" transform="translate(20.127)"/><line class="g" x2="0.872" y2="2.064" transform="translate(8.65 0.087)"/><line class="g" x2="2.076" y2="0.843" transform="translate(0 8.859)"/><line class="g" y1="0.872" x2="2.064" transform="translate(0.087 20.307)"/></g><g transform="translate(0.406 0.406)"><line class="g" y1="1.898" x2="1.19" transform="translate(7.137 27.429)"/><line class="g" x1="0.5" y1="2.184" transform="translate(18.785 29.197)"/><line class="g" x1="1.898" y1="1.19" transform="translate(27.429 23.053)"/><line class="g" x1="2.184" y2="0.5" transform="translate(29.197 12.096)"/><line class="g" x1="1.19" y2="1.898" transform="translate(23.053 2.054)"/><line class="g" x2="0.5" y2="2.184" transform="translate(12.096)"/><line class="g" x2="1.898" y2="1.19" transform="translate(2.054 7.137)"/><line class="g" y1="0.5" x2="2.184" transform="translate(0 18.785)"/></g><g transform="translate(0.021 0.021)"><line class="g" y1="1.662" x2="1.502" transform="translate(5.285 26.358)"/><line class="g" x1="0.113" y1="2.237" transform="translate(16.778 29.915)"/><line class="g" x1="1.662" y1="1.502" transform="translate(26.358 25.366)"/><line class="g" x1="2.237" y2="0.113" transform="translate(29.915 15.261)"/><line class="g" x1="1.502" y2="1.662" transform="translate(25.366 4.132)"/><line class="g" x2="0.113" y2="2.237" transform="translate(15.261)"/><line class="g" x2="1.662" y2="1.502" transform="translate(4.132 5.285)"/><line class="g" y1="0.113" x2="2.237" transform="translate(0 16.778)"/></g><path class="h" d="M-186.694,1859.234a6.318,6.318,0,0,1,1.625-2.326,6.148,6.148,0,0,1-1.667-2.432,6.3,6.3,0,0,0-.447,2.326A6.188,6.188,0,0,0-186.694,1859.234Z" transform="translate(193.966 -1840.755)"/><path class="h" d="M-181.378,1849.137a6.2,6.2,0,0,1,2.336,1.539,6.067,6.067,0,0,1,2.294-1.529,6.3,6.3,0,0,0-2.326-.446A6.132,6.132,0,0,0-181.378,1849.137Z" transform="translate(195.431 -1842.211)"/><path class="h" d="M-176.748,1863.586a6.173,6.173,0,0,1-2.294-1.518,6.294,6.294,0,0,1-2.336,1.529,6.16,6.16,0,0,0,2.3.435A6.3,6.3,0,0,0-176.748,1863.586Z" transform="translate(195.431 -1838.839)"/><path class="h" d="M-171.875,1856.886a6.294,6.294,0,0,0-.447-2.325,6.186,6.186,0,0,1-1.677,2.432,6.223,6.223,0,0,1,1.635,2.325A6.186,6.186,0,0,0-171.875,1856.886Z" transform="translate(197.292 -1840.733)"/><g transform="translate(9.662 9.665)"><path class="i" d="M-177.24,1858.846a6.349,6.349,0,0,0,2.676-1.467,6.3,6.3,0,0,0-2.612-1.432,6.47,6.47,0,0,0-1.667-3.133,6.464,6.464,0,0,0-1.678,3.112,6.406,6.406,0,0,0-2.676,1.454,6.256,6.256,0,0,0,2.74,1.477,6.323,6.323,0,0,0,1.614,2.888A6.3,6.3,0,0,0-177.24,1858.846Z" transform="translate(185.31 -1850.839)"/><path class="j" d="M-178.417,1860.824a6.323,6.323,0,0,1-1.614-2.888,6.257,6.257,0,0,1-2.74-1.477,6.326,6.326,0,0,0-1.624,2.326,6.187,6.187,0,0,0-.488,2.432,6.882,6.882,0,0,0,.138,1.339,6.038,6.038,0,0,0,1.7.233,6.117,6.117,0,0,0,2.293-.436A6.258,6.258,0,0,0-178.417,1860.824Z" transform="translate(184.884 -1849.919)"/><path class="j" d="M-178.417,1853.212a6.2,6.2,0,0,0-2.337-1.539,6.116,6.116,0,0,0-2.293-.436,6.4,6.4,0,0,0-1.636.213,5.911,5.911,0,0,0-.2,1.571,6.3,6.3,0,0,0,.446,2.326,6.156,6.156,0,0,0,1.667,2.43,6.4,6.4,0,0,1,2.676-1.454A6.464,6.464,0,0,1-178.417,1853.212Z" transform="translate(184.884 -1851.237)"/><path class="j" d="M-173.317,1853.021a5.948,5.948,0,0,0-.2-1.583,5.946,5.946,0,0,0-1.583-.2,6.292,6.292,0,0,0-2.326.446,6.058,6.058,0,0,0-2.293,1.529,6.47,6.47,0,0,1,1.667,3.133,6.3,6.3,0,0,1,2.612,1.432,6.181,6.181,0,0,0,1.678-2.43A6.3,6.3,0,0,0-173.317,1853.021Z" transform="translate(186.187 -1851.237)"/><path class="j" d="M-173.317,1861.217a6.187,6.187,0,0,0-.488-2.432,6.237,6.237,0,0,0-1.635-2.326,6.349,6.349,0,0,1-2.676,1.467,6.3,6.3,0,0,1-1.6,2.9,6.152,6.152,0,0,0,2.293,1.519,6.3,6.3,0,0,0,2.326.446,6.433,6.433,0,0,0,1.647-.212A7.2,7.2,0,0,0-173.317,1861.217Z" transform="translate(186.187 -1849.919)"/></g><g transform="translate(4.803 4.803)"><circle class="g" cx="11.297" cy="11.297" r="11.297"/></g></g><path class="k" d="M-86.869,1818.782h0a13.031,13.031,0,0,1-12.689,10.067h-46.615" transform="translate(13.081 16.018)"/><path class="e" d="M-167.361,1834.813h0a14.889,14.889,0,0,1-14.426-11.212l-7.248-28.46" transform="translate(2.267 10.054)"/><path class="l" d="M-187.831,1800.988l-9.992-39.173a5.215,5.215,0,0,1,5.739-6.458l123.2,16.132" transform="translate(0.009 0.005)"/><path class="c" d="M-186.44,1801.014l-5.495,1.4,3.961,4.058,3.961,4.057,1.533-5.459,1.533-5.459Z" transform="translate(1.536 11.182)"/><path class="d" d="M-184.323,1810.746l-3.812.971,2.747,2.816,2.747,2.816,1.065-3.787,1.065-3.786Z" transform="translate(2.495 13.746)"/></g></svg>