<svg xmlns="http://www.w3.org/2000/svg" xmlns:xlink="http://www.w3.org/1999/xlink" width="92.214" height="114.688" viewBox="0 0 92.214 114.688"><defs><style>.a{fill:url(#a);}.b,.e{fill:none;}.b,.c,.d,.e{stroke:#caf0ff;stroke-linecap:round;stroke-linejoin:round;}.b{stroke-width:0.865px;}.c{fill:#0147fc;stroke-width:0.856px;}.d{fill:#08218f;stroke-width:0.632px;}.e{stroke-width:1.096px;}</style><linearGradient id="a" y1="0.5" x2="1" y2="0.5" gradientUnits="objectBoundingBox"><stop offset="0" stop-color="#fc0000"/><stop offset="0.151" stop-color="#c30131" stop-opacity="0.769"/><stop offset="0.32" stop-color="#8a0363" stop-opacity="0.537"/><stop offset="0.483" stop-color="#5b048c" stop-opacity="0.345"/><stop offset="0.637" stop-color="#3605ac" stop-opacity="0.196"/><stop offset="0.779" stop-color="#1c06c3" stop-opacity="0.086"/><stop offset="0.904" stop-color="#0c06d1" stop-opacity="0.024"/><stop offset="1" stop-color="#0707d6" stop-opacity="0"/></linearGradient></defs><g transform="translate(358.455 -1724.3)"><path class="a" d="M-275.577,1838.555h-68.087a8.9,8.9,0,0,1-8.9-8.9v-95.838a8.9,8.9,0,0,1,8.9-8.905h55.3l21.692,18.5v86.247A8.9,8.9,0,0,1-275.577,1838.555Z"/><path class="b" d="M-287.533,1724.733l.047,18.542,20.814.129Z"/><path class="b" d="M-275.693,1838.555h-67.856a9.02,9.02,0,0,1-9.02-9.02v-95.782a9.02,9.02,0,0,1,9.02-9.02h56.016l20.86,18.735v86.067A9.02,9.02,0,0,1-275.693,1838.555Z"/><path class="c" d="M-352.673,1765.222h-5.353l2.729-4.727,2.729-4.727,2.729,4.727,2.729,4.727Z"/><path class="d" d="M-352.538,1753h-3.713l1.893-3.279,1.79-3.279,2,3.279,1.893,3.279Z"/><line class="e" x2="15.906" y2="15.906" transform="translate(-331.725 1757.611)"/><line class="e" x1="15.906" y2="15.906" transform="translate(-331.725 1757.611)"/><line class="e" x2="15.906" y2="15.906" transform="translate(-303.422 1757.611)"/><line class="e" x1="15.906" y2="15.906" transform="translate(-303.422 1757.611)"/><line class="e" x2="45.485" transform="translate(-332.363 1791.585)"/></g></svg>